# xmcd
#
# Track frame offsets:
# 150
# 12082
# 22005
# 34503
# 48764
# 60412
# 73999
# 86132
# 102295
# 113348
#
# Disc length: 1686 seconds
#
#
# Revision: 0
# Processed by: cddbd v1.5PL3 Copyright (c) Steve Scherf et al.
# Submitted via: FreeRIP 2.53 
#
DISCID=7406940a
DTITLE=Paycheck, Johnny - Golden Classics
DYEAR=1900
DGENRE=
TTITLE0=Take This Job And Shove It
TTITLE1=Mr Lovemaker
TTITLE2=Dont Take Her She's All I Got
TTITLE3=I'm The Only Hell Mamma Ever Raised
TTITLE4=Song And Sance Man
TTITLE5=Someone To Give My Love To
TTITLE6=Something About You I Love
TTITLE7=For A Minute There
TTITLE8=A-11
TTITLE9=Heaven's Almost As Big As Texas
EXTD=
EXTT0=
EXTT1=
EXTT2=
EXTT3=
EXTT4=
EXTT5=
EXTT6=
EXTT7=
EXTT8=
EXTT9=
PLAYORDER=
